<?xml version="1.0" encoding="utf-8" standalone="no"?>
<!DOCTYPE svg PUBLIC "-//W3C//DTD SVG 1.1//EN" "http://www.w3.org/Graphics/SVG/1.1/DTD/svg11.dtd">
<svg version="1.1" width="141.84pt" height="141.84pt" viewBox="0 0 141.84 141.84" overflow="visible" xmlns="http://www.w3.org/2000/svg">
  <path d="M56.02244,106.309 L56.02244,115.9056 L70.92,124.5067 L118.7363,96.89999 L118.7363,100.1535 L70.92,127.7602 L53.20484,117.5323 L53.20484,103.7488 L54.53283,103.6725 C56.92718,103.5349 58.98118,102.3083 60.22252,99.71271 C61.46386,97.11707 61.67616,93.15983 60.91328,89.28851 C59.71756,81.41887 52.59549,70.9031 46.30747,67.72298 C43.29958,65.98637 40.09923,65.34298 37.76792,66.0851 C35.4366,66.82722 33.81388,68.89187 33.09332,71.71636 C31.17384,77.43337 34.78394,88.98425 40.49683,95.40466 L40.8189,95.79506 L40.8189,110.3813 L23.10374,100.1535 L23.10374,96.89999 L38.0013,105.5011 L38.0013,96.80173 C31.92805,89.76406 28.27962,77.33773 30.36316,71.01987 C31.24605,67.55905 33.55284,64.46996 36.91326,63.40025 C40.27367,62.33054 44.27665,63.297 47.71627,65.28287 C54.60163,68.76971 62.38474,80.20969 63.67772,88.74375 C64.51827,93.00924 64.38383,97.54207 62.76439,100.9283 C61.36635,103.8517 58.79422,105.7298 56.02244,106.309 z" stroke="Black" stroke-width="0" fill="#FFFFFF" fill-opacity="1" />
  <path d="M47.72104,40.32385 L39.4101,35.52553 L23.10374,44.94001 L23.10374,41.68653 L39.4101,32.27205 L51.34705,39.16384 L50.74912,40.35207 C49.67108,42.49441 49.7063,44.88651 51.33352,47.25935 C52.96074,49.6322 56.28167,51.79469 60.01576,53.06967 C67.42893,55.96897 80.09689,55.05896 85.99496,51.20343 C89.00286,49.46683 91.16022,47.01694 91.68319,44.6269 C92.20615,42.23687 91.22948,39.79922 89.14367,37.76296 C85.15233,33.24213 73.34394,30.59313 64.92725,32.33043 L64.42812,32.41415 L51.79604,25.12102 L70.92,14.0798 L118.7363,41.68653 L118.7363,44.94001 L70.92,17.33328 L57.43124,25.12102 L64.96511,29.47071 C74.09654,27.72995 86.68227,30.78348 91.11192,35.74681 C93.66764,38.24182 95.18948,41.78411 94.43567,45.22917 C93.68185,48.67424 90.84339,51.65768 87.40376,53.64355 C80.94139,57.86302 67.14252,58.8834 59.10532,55.73612 C54.99102,54.33132 51.13269,51.94849 49.00982,48.85287 C47.17718,46.18047 46.83677,43.01389 47.72104,40.32385 z" stroke="Black" stroke-width="0" fill="#FFFFFF" fill-opacity="1" />
  <path d="M109.7936,86.48756 C106.7354,95.26599 97.79811,104.6388 91.28491,105.9933 C87.84631,106.9591 84.01768,106.5059 81.41107,104.1306 C78.80447,101.7552 77.63996,97.80533 77.63996,93.83359 C77.21698,86.12727 83.23274,73.6669 89.97697,68.28013 C93.25071,65.41944 97.24347,63.26945 100.9858,62.97879 C104.2165,62.72788 107.129,64.01637 109.0165,66.12718 L118.7363,60.51549 L118.7363,63.76898 L108.2081,69.8474 L107.478,68.73547 C106.1617,66.73069 104.0725,65.56515 101.204,65.78793 C98.3354,66.01073 94.80218,67.80549 91.83096,70.40182 C85.6135,75.37216 80.06762,86.79795 80.45757,93.83359 C80.45757,97.3068 81.50054,100.4001 83.30889,102.048 C85.11725,103.6959 87.71664,104.0689 90.52301,103.2807 C96.43382,102.0845 104.6321,93.18262 107.3359,85.02492 L107.513,84.55078 L118.7363,78.07102 L118.7363,81.32451 z" stroke="Black" stroke-width="0" fill="#FFFFFF" fill-opacity="1" />
</svg>